<svg xmlns="http://www.w3.org/2000/svg" viewBox="0 0 720 380">
  <defs>
    <style>
      text { font-family: 'Segoe UI', system-ui, -apple-system, sans-serif; }
      .title { font-size: 13px; font-weight: 600; fill: #1a1a2e; }
      .label { font-size: 10px; fill: #444; }
      .label-bold { font-size: 10px; fill: #1a1a2e; font-weight: 600; }
      .axis-label { font-size: 9px; fill: #666; }
      .annotation { font-size: 11px; fill: #0d7377; font-weight: 600; }
      .annotation-red { font-size: 11px; fill: #c0392b; font-weight: 600; }
      .grid-line { stroke: #e8e8e8; stroke-width: 0.5; }
      .axis-line { stroke: #333; stroke-width: 1; }
    </style>
  </defs>

  <!-- Background -->
  <rect width="720" height="380" fill="#fafafa" rx="4"/>

  <!-- ═══ LEFT PANEL: Full Mode Comb ═══ -->
  <text x="185" y="22" text-anchor="middle" class="title">(a) Eigenmode Frequency Comb</text>

  <!-- Plot area: x=45..345, y=38..200 -->
  <!-- Axes -->
  <line x1="45" y1="200" x2="345" y2="200" class="axis-line"/>
  <line x1="45" y1="38" x2="45" y2="200" class="axis-line"/>

  <!-- Y-axis label -->
  <text x="16" y="120" text-anchor="middle" class="label-bold" transform="rotate(-90,16,120)">Amplitude (a.u.)</text>
  <!-- X-axis label -->
  <text x="195" y="218" text-anchor="middle" class="label">Frequency (kHz)</text>

  <!-- Grid lines -->
  <line x1="45" y1="78" x2="345" y2="78" class="grid-line"/>
  <line x1="45" y1="118" x2="345" y2="118" class="grid-line"/>
  <line x1="45" y1="158" x2="345" y2="158" class="grid-line"/>

  <!-- Y-axis ticks -->
  <text x="40" y="203" text-anchor="end" class="axis-label">0</text>
  <text x="40" y="161" text-anchor="end" class="axis-label">0.25</text>
  <text x="40" y="121" text-anchor="end" class="axis-label">0.50</text>
  <text x="40" y="81" text-anchor="end" class="axis-label">0.75</text>
  <text x="40" y="42" text-anchor="end" class="axis-label">1.0</text>

  <!-- X-axis ticks: 18.8, 37.6, ..., 150.4 (8 modes shown) -->
  <text x="82" y="230" text-anchor="middle" class="axis-label">18.8</text>
  <text x="119" y="230" text-anchor="middle" class="axis-label">37.6</text>
  <text x="157" y="230" text-anchor="middle" class="axis-label">56.4</text>
  <text x="194" y="230" text-anchor="middle" class="axis-label">75.2</text>
  <text x="232" y="230" text-anchor="middle" class="axis-label">94.0</text>
  <text x="269" y="230" text-anchor="middle" class="axis-label">112.8</text>
  <text x="307" y="230" text-anchor="middle" class="axis-label">131.6</text>

  <!-- Unperturbed peaks (blue) — clean comb -->
  <line x1="82" y1="200" x2="82" y2="44" stroke="#2980b9" stroke-width="2.5" opacity="0.85"/>
  <line x1="119" y1="200" x2="119" y2="52" stroke="#2980b9" stroke-width="2.5" opacity="0.85"/>
  <line x1="157" y1="200" x2="157" y2="60" stroke="#2980b9" stroke-width="2.5" opacity="0.85"/>
  <line x1="194" y1="200" x2="194" y2="68" stroke="#2980b9" stroke-width="2.5" opacity="0.85"/>
  <line x1="232" y1="200" x2="232" y2="78" stroke="#2980b9" stroke-width="2.5" opacity="0.85"/>
  <line x1="269" y1="200" x2="269" y2="90" stroke="#2980b9" stroke-width="2.5" opacity="0.85"/>
  <line x1="307" y1="200" x2="307" y2="102" stroke="#2980b9" stroke-width="2.5" opacity="0.85"/>

  <!-- Peak dots -->
  <circle cx="82" cy="44" r="3" fill="#2980b9"/>
  <circle cx="119" cy="52" r="3" fill="#2980b9"/>
  <circle cx="157" cy="60" r="3" fill="#2980b9"/>
  <circle cx="194" cy="68" r="3" fill="#2980b9"/>
  <circle cx="232" cy="78" r="3" fill="#2980b9"/>
  <circle cx="269" cy="90" r="3" fill="#2980b9"/>
  <circle cx="307" cy="102" r="3" fill="#2980b9"/>

  <!-- Perturbed peaks (red-orange, shifted) -->
  <line x1="83" y1="200" x2="83" y2="48" stroke="#e74c3c" stroke-width="2" opacity="0.75" stroke-dasharray="4,2"/>
  <line x1="117" y1="200" x2="117" y2="56" stroke="#e74c3c" stroke-width="2" opacity="0.75" stroke-dasharray="4,2"/>
  <line x1="159" y1="200" x2="159" y2="55" stroke="#e74c3c" stroke-width="2" opacity="0.75" stroke-dasharray="4,2"/>
  <line x1="192" y1="200" x2="192" y2="72" stroke="#e74c3c" stroke-width="2" opacity="0.75" stroke-dasharray="4,2"/>
  <line x1="234" y1="200" x2="234" y2="74" stroke="#e74c3c" stroke-width="2" opacity="0.75" stroke-dasharray="4,2"/>
  <line x1="268" y1="200" x2="268" y2="95" stroke="#e74c3c" stroke-width="2" opacity="0.75" stroke-dasharray="4,2"/>
  <line x1="310" y1="200" x2="310" y2="96" stroke="#e74c3c" stroke-width="2" opacity="0.75" stroke-dasharray="4,2"/>

  <!-- Perturbed peak dots -->
  <circle cx="83" cy="48" r="2.5" fill="#e74c3c"/>
  <circle cx="117" cy="56" r="2.5" fill="#e74c3c"/>
  <circle cx="159" cy="55" r="2.5" fill="#e74c3c"/>
  <circle cx="192" cy="72" r="2.5" fill="#e74c3c"/>
  <circle cx="234" cy="74" r="2.5" fill="#e74c3c"/>
  <circle cx="268" cy="95" r="2.5" fill="#e74c3c"/>
  <circle cx="310" cy="96" r="2.5" fill="#e74c3c"/>

  <!-- Shift arrows on mode 3 (most shifted — near antinode of wax) -->
  <path d="M157,57 L159,57" stroke="#c0392b" stroke-width="1.5" fill="none" marker-end="url(#arrowR)"/>
  <line x1="157" y1="54" x2="157" y2="62" stroke="#c0392b" stroke-width="0.8"/>
  <line x1="159" y1="54" x2="159" y2="62" stroke="#c0392b" stroke-width="0.8"/>
  <text x="163" y="53" class="annotation-red" font-size="8">Δf₃</text>

  <!-- Legend -->
  <line x1="55" y1="242" x2="75" y2="242" stroke="#2980b9" stroke-width="2.5"/>
  <text x="78" y="245" class="label">Bare rod</text>
  <line x1="130" y1="242" x2="150" y2="242" stroke="#e74c3c" stroke-width="2" stroke-dasharray="4,2"/>
  <text x="153" y="245" class="label">After wax perturbation</text>

  <!-- Annotation -->
  <text x="195" y="262" text-anchor="middle" class="annotation" font-size="9">Mode spacing = v/(2L) = 18.8 kHz</text>
  <text x="195" y="276" text-anchor="middle" class="label" font-size="9">Each Δfₙ depends on wax position relative to mode n antinode</text>

  <!-- ═══ RIGHT PANEL: Zoomed Perturbation Detail ═══ -->
  <line x1="365" y1="30" x2="365" y2="280" stroke="#ddd" stroke-width="1" stroke-dasharray="4,4"/>
  <text x="545" y="22" text-anchor="middle" class="title">(b) Perturbation Detail: Modes 2–4</text>

  <!-- Plot area: x=400..695, y=38..200 -->
  <line x1="400" y1="200" x2="695" y2="200" class="axis-line"/>
  <line x1="400" y1="38" x2="400" y2="200" class="axis-line"/>

  <!-- Y-axis -->
  <text x="376" y="120" text-anchor="middle" class="label-bold" transform="rotate(-90,376,120)">Amplitude</text>
  <text x="547" y="218" text-anchor="middle" class="label">Frequency (kHz)</text>

  <!-- Grid -->
  <line x1="400" y1="80" x2="695" y2="80" class="grid-line"/>
  <line x1="400" y1="120" x2="695" y2="120" class="grid-line"/>
  <line x1="400" y1="160" x2="695" y2="160" class="grid-line"/>

  <!-- Zoomed view: three modes with Lorentzian peaks -->
  <!-- Mode 2 bare (centered ~460) -->
  <path d="M420,200 Q430,200 440,198 Q450,190 455,160 Q458,120 460,52 Q462,120 465,160 Q470,190 480,198 Q490,200 500,200"
        fill="none" stroke="#2980b9" stroke-width="2"/>
  <!-- Mode 2 perturbed (shifted left to ~455, slightly lower) -->
  <path d="M415,200 Q425,200 435,198 Q443,192 449,165 Q452,130 454,62 Q456,130 459,165 Q465,192 473,198 Q483,200 493,200"
        fill="none" stroke="#e74c3c" stroke-width="1.5" stroke-dasharray="4,2" opacity="0.8"/>

  <!-- Mode 3 bare (centered ~560) -->
  <path d="M520,200 Q530,200 540,198 Q550,190 555,155 Q558,110 560,46 Q562,110 565,155 Q570,190 580,198 Q590,200 600,200"
        fill="none" stroke="#2980b9" stroke-width="2"/>
  <!-- Mode 3 perturbed (shifted right to ~566, boosted — near antinode) -->
  <path d="M528,200 Q538,200 548,197 Q556,188 562,148 Q564,100 566,42 Q568,100 570,148 Q576,188 584,197 Q594,200 604,200"
        fill="none" stroke="#e74c3c" stroke-width="1.5" stroke-dasharray="4,2" opacity="0.8"/>

  <!-- Mode 4 bare (centered ~660) -->
  <path d="M625,200 Q635,200 645,198 Q653,192 657,168 Q659,135 660,65 Q661,135 663,168 Q667,192 675,198 Q685,200 695,200"
        fill="none" stroke="#2980b9" stroke-width="2"/>
  <!-- Mode 4 perturbed (shifted right by tiny amount) -->
  <path d="M626,200 Q636,200 646,198 Q654,192 658,170 Q660,138 661,70 Q662,138 664,170 Q668,192 676,198 Q686,200 696,200"
        fill="none" stroke="#e74c3c" stroke-width="1.5" stroke-dasharray="4,2" opacity="0.8"/>

  <!-- Shift annotation for mode 3 -->
  <line x1="560" y1="36" x2="560" y2="40" stroke="#2980b9" stroke-width="1"/>
  <line x1="566" y1="36" x2="566" y2="40" stroke="#e74c3c" stroke-width="1"/>
  <path d="M560,34 L566,34" stroke="#c0392b" stroke-width="1.2" fill="none" marker-end="url(#arrowR2)"/>
  <text x="563" y="30" text-anchor="middle" class="annotation-red" font-size="9">Δf₃ = large</text>
  <text x="563" y="232" text-anchor="middle" class="axis-label">mode 3: wax at antinode</text>

  <!-- Shift annotation for mode 4 -->
  <text x="660" y="56" text-anchor="middle" class="annotation" font-size="8">Δf₄ ≈ 0</text>
  <text x="660" y="232" text-anchor="middle" class="axis-label">mode 4: wax near node</text>

  <!-- Shift annotation for mode 2 -->
  <line x1="460" y1="45" x2="460" y2="50" stroke="#2980b9" stroke-width="1"/>
  <line x1="454" y1="55" x2="454" y2="60" stroke="#e74c3c" stroke-width="1"/>
  <text x="450" y="42" text-anchor="middle" class="annotation-red" font-size="8">Δf₂ = −6 Hz</text>
  <text x="460" y="232" text-anchor="middle" class="axis-label">mode 2</text>

  <!-- Arrow defs -->
  <defs>
    <marker id="arrowR" markerWidth="6" markerHeight="4" refX="5" refY="2" orient="auto">
      <path d="M0,0 L6,2 L0,4" fill="#c0392b"/>
    </marker>
    <marker id="arrowR2" markerWidth="6" markerHeight="4" refX="5" refY="2" orient="auto">
      <path d="M0,0 L6,2 L0,4" fill="#c0392b"/>
    </marker>
  </defs>

  <!-- Bottom summary -->
  <rect x="50" y="290" width="620" height="80" rx="6" fill="#f0f7f7" stroke="#0d7377" stroke-width="0.8"/>
  <text x="360" y="310" text-anchor="middle" class="label-bold" font-size="11">Measured: Rayleigh prediction matches within 2%</text>
  <text x="360" y="328" text-anchor="middle" class="label" font-size="10">A 150 mm borosilicate rod (v = 5,640 m/s) produces a comb of 9,380 thermally stable modes</text>
  <text x="360" y="346" text-anchor="middle" class="label" font-size="10">from 18.8 kHz to 176 MHz. Wax perturbation (~0.1 mg) shifts each mode by a different Δfₙ,</text>
  <text x="360" y="362" text-anchor="middle" class="label" font-size="10">creating a unique spectral fingerprint. Different mass patterns → different fingerprints.</text>
</svg>
