<svg xmlns="http://www.w3.org/2000/svg" viewBox="0 0 720 360">
  <defs>
    <style>
      text { font-family: 'Segoe UI', system-ui, -apple-system, sans-serif; }
      .title { font-size: 13px; font-weight: 600; fill: #1a1a2e; }
      .label { font-size: 10px; fill: #444; }
      .label-bold { font-size: 10px; fill: #1a1a2e; font-weight: 600; }
      .axis-label { font-size: 9px; fill: #666; }
      .annotation { font-size: 11px; fill: #0d7377; font-weight: 600; }
      .annotation-red { font-size: 11px; fill: #c0392b; font-weight: 600; }
      .grid-line { stroke: #e0e0e0; stroke-width: 0.5; }
      .axis-line { stroke: #333; stroke-width: 1; }
      .curve { fill: none; stroke-width: 2; }
      .baseline { stroke-dasharray: 6,3; }
    </style>
  </defs>

  <!-- Background -->
  <rect width="720" height="360" fill="#fafafa" rx="4"/>

  <!-- Panel divider -->
  <line x1="360" y1="30" x2="360" y2="340" stroke="#ddd" stroke-width="1" stroke-dasharray="4,4"/>

  <!-- ═══ LEFT PANEL: Weight Matrix Before/After ═══ -->
  <text x="180" y="25" text-anchor="middle" class="title">(a) Synaptic Pruning Concept</text>

  <!-- BEFORE label -->
  <text x="110" y="55" text-anchor="middle" class="label-bold">Before pruning</text>

  <!-- Before matrix (8×8 grid) -->
  <g transform="translate(55, 62)">
    <!-- Strong weights (dark blue) -->
    <rect x="0" y="0" width="13" height="13" rx="1" fill="#1a5276" opacity="0.9"/>
    <rect x="14" y="0" width="13" height="13" rx="1" fill="#2980b9" opacity="0.4"/>
    <rect x="28" y="0" width="13" height="13" rx="1" fill="#e74c3c" opacity="0.3"/>
    <rect x="42" y="0" width="13" height="13" rx="1" fill="#2980b9" opacity="0.15"/>
    <rect x="56" y="0" width="13" height="13" rx="1" fill="#1a5276" opacity="0.7"/>
    <rect x="70" y="0" width="13" height="13" rx="1" fill="#e74c3c" opacity="0.12"/>
    <rect x="84" y="0" width="13" height="13" rx="1" fill="#2980b9" opacity="0.08"/>
    <rect x="98" y="0" width="13" height="13" rx="1" fill="#e74c3c" opacity="0.85"/>

    <rect x="0" y="14" width="13" height="13" rx="1" fill="#2980b9" opacity="0.4"/>
    <rect x="14" y="14" width="13" height="13" rx="1" fill="#1a5276" opacity="0.8"/>
    <rect x="28" y="14" width="13" height="13" rx="1" fill="#2980b9" opacity="0.1"/>
    <rect x="42" y="14" width="13" height="13" rx="1" fill="#e74c3c" opacity="0.6"/>
    <rect x="56" y="14" width="13" height="13" rx="1" fill="#2980b9" opacity="0.05"/>
    <rect x="70" y="14" width="13" height="13" rx="1" fill="#1a5276" opacity="0.65"/>
    <rect x="84" y="14" width="13" height="13" rx="1" fill="#e74c3c" opacity="0.11"/>
    <rect x="98" y="14" width="13" height="13" rx="1" fill="#2980b9" opacity="0.3"/>

    <rect x="0" y="28" width="13" height="13" rx="1" fill="#e74c3c" opacity="0.3"/>
    <rect x="14" y="28" width="13" height="13" rx="1" fill="#2980b9" opacity="0.1"/>
    <rect x="28" y="28" width="13" height="13" rx="1" fill="#1a5276" opacity="0.9"/>
    <rect x="42" y="28" width="13" height="13" rx="1" fill="#2980b9" opacity="0.07"/>
    <rect x="56" y="28" width="13" height="13" rx="1" fill="#e74c3c" opacity="0.55"/>
    <rect x="70" y="28" width="13" height="13" rx="1" fill="#2980b9" opacity="0.13"/>
    <rect x="84" y="28" width="13" height="13" rx="1" fill="#1a5276" opacity="0.72"/>
    <rect x="98" y="28" width="13" height="13" rx="1" fill="#2980b9" opacity="0.09"/>

    <rect x="0" y="42" width="13" height="13" rx="1" fill="#2980b9" opacity="0.15"/>
    <rect x="14" y="42" width="13" height="13" rx="1" fill="#e74c3c" opacity="0.6"/>
    <rect x="28" y="42" width="13" height="13" rx="1" fill="#2980b9" opacity="0.07"/>
    <rect x="42" y="42" width="13" height="13" rx="1" fill="#1a5276" opacity="0.85"/>
    <rect x="56" y="42" width="13" height="13" rx="1" fill="#e74c3c" opacity="0.1"/>
    <rect x="70" y="42" width="13" height="13" rx="1" fill="#2980b9" opacity="0.45"/>
    <rect x="84" y="42" width="13" height="13" rx="1" fill="#2980b9" opacity="0.06"/>
    <rect x="98" y="42" width="13" height="13" rx="1" fill="#1a5276" opacity="0.5"/>

    <rect x="0" y="56" width="13" height="13" rx="1" fill="#1a5276" opacity="0.7"/>
    <rect x="14" y="56" width="13" height="13" rx="1" fill="#2980b9" opacity="0.05"/>
    <rect x="28" y="56" width="13" height="13" rx="1" fill="#e74c3c" opacity="0.55"/>
    <rect x="42" y="56" width="13" height="13" rx="1" fill="#e74c3c" opacity="0.1"/>
    <rect x="56" y="56" width="13" height="13" rx="1" fill="#1a5276" opacity="0.92"/>
    <rect x="70" y="56" width="13" height="13" rx="1" fill="#2980b9" opacity="0.08"/>
    <rect x="84" y="56" width="13" height="13" rx="1" fill="#e74c3c" opacity="0.68"/>
    <rect x="98" y="56" width="13" height="13" rx="1" fill="#2980b9" opacity="0.14"/>

    <rect x="0" y="70" width="13" height="13" rx="1" fill="#e74c3c" opacity="0.12"/>
    <rect x="14" y="70" width="13" height="13" rx="1" fill="#1a5276" opacity="0.65"/>
    <rect x="28" y="70" width="13" height="13" rx="1" fill="#2980b9" opacity="0.13"/>
    <rect x="42" y="70" width="13" height="13" rx="1" fill="#2980b9" opacity="0.45"/>
    <rect x="56" y="70" width="13" height="13" rx="1" fill="#2980b9" opacity="0.08"/>
    <rect x="70" y="70" width="13" height="13" rx="1" fill="#1a5276" opacity="0.88"/>
    <rect x="84" y="70" width="13" height="13" rx="1" fill="#e74c3c" opacity="0.4"/>
    <rect x="98" y="70" width="13" height="13" rx="1" fill="#2980b9" opacity="0.06"/>

    <rect x="0" y="84" width="13" height="13" rx="1" fill="#2980b9" opacity="0.08"/>
    <rect x="14" y="84" width="13" height="13" rx="1" fill="#e74c3c" opacity="0.11"/>
    <rect x="28" y="84" width="13" height="13" rx="1" fill="#1a5276" opacity="0.72"/>
    <rect x="42" y="84" width="13" height="13" rx="1" fill="#2980b9" opacity="0.06"/>
    <rect x="56" y="84" width="13" height="13" rx="1" fill="#e74c3c" opacity="0.68"/>
    <rect x="70" y="84" width="13" height="13" rx="1" fill="#e74c3c" opacity="0.4"/>
    <rect x="84" y="84" width="13" height="13" rx="1" fill="#1a5276" opacity="0.78"/>
    <rect x="98" y="84" width="13" height="13" rx="1" fill="#2980b9" opacity="0.1"/>

    <rect x="0" y="98" width="13" height="13" rx="1" fill="#e74c3c" opacity="0.85"/>
    <rect x="14" y="98" width="13" height="13" rx="1" fill="#2980b9" opacity="0.3"/>
    <rect x="28" y="98" width="13" height="13" rx="1" fill="#2980b9" opacity="0.09"/>
    <rect x="42" y="98" width="13" height="13" rx="1" fill="#1a5276" opacity="0.5"/>
    <rect x="56" y="98" width="13" height="13" rx="1" fill="#2980b9" opacity="0.14"/>
    <rect x="70" y="98" width="13" height="13" rx="1" fill="#2980b9" opacity="0.06"/>
    <rect x="84" y="98" width="13" height="13" rx="1" fill="#2980b9" opacity="0.1"/>
    <rect x="98" y="98" width="13" height="13" rx="1" fill="#1a5276" opacity="0.82"/>
    <!-- Grid outline -->
    <rect x="0" y="0" width="111" height="111" fill="none" stroke="#999" stroke-width="0.5" rx="2"/>
  </g>

  <!-- Arrow -->
  <line x1="172" y1="118" x2="196" y2="118" stroke="#0d7377" stroke-width="2" marker-end="url(#arrowG)"/>
  <text x="184" y="108" text-anchor="middle" class="axis-label" fill="#0d7377">θ = 0.055</text>
  <defs><marker id="arrowG" markerWidth="6" markerHeight="4" refX="6" refY="2" orient="auto"><polygon points="0,0 6,2 0,4" fill="#0d7377"/></marker></defs>

  <!-- AFTER label -->
  <text x="270" y="55" text-anchor="middle" class="label-bold">After pruning (|w| &lt; θ → 0)</text>

  <!-- After matrix (same grid but with some cells zeroed) -->
  <g transform="translate(215, 62)">
    <rect x="0" y="0" width="13" height="13" rx="1" fill="#1a5276" opacity="0.9"/>
    <rect x="14" y="0" width="13" height="13" rx="1" fill="#2980b9" opacity="0.4"/>
    <rect x="28" y="0" width="13" height="13" rx="1" fill="#e74c3c" opacity="0.3"/>
    <rect x="42" y="0" width="13" height="13" rx="1" fill="#f0f0f0" opacity="1"/>
    <rect x="56" y="0" width="13" height="13" rx="1" fill="#1a5276" opacity="0.7"/>
    <rect x="70" y="0" width="13" height="13" rx="1" fill="#f0f0f0" opacity="1"/>
    <rect x="84" y="0" width="13" height="13" rx="1" fill="#f0f0f0" opacity="1"/>
    <rect x="98" y="0" width="13" height="13" rx="1" fill="#e74c3c" opacity="0.85"/>

    <rect x="0" y="14" width="13" height="13" rx="1" fill="#2980b9" opacity="0.4"/>
    <rect x="14" y="14" width="13" height="13" rx="1" fill="#1a5276" opacity="0.8"/>
    <rect x="28" y="14" width="13" height="13" rx="1" fill="#f0f0f0" opacity="1"/>
    <rect x="42" y="14" width="13" height="13" rx="1" fill="#e74c3c" opacity="0.6"/>
    <rect x="56" y="14" width="13" height="13" rx="1" fill="#f0f0f0" opacity="1"/>
    <rect x="70" y="14" width="13" height="13" rx="1" fill="#1a5276" opacity="0.65"/>
    <rect x="84" y="14" width="13" height="13" rx="1" fill="#f0f0f0" opacity="1"/>
    <rect x="98" y="14" width="13" height="13" rx="1" fill="#2980b9" opacity="0.3"/>

    <rect x="0" y="28" width="13" height="13" rx="1" fill="#e74c3c" opacity="0.3"/>
    <rect x="14" y="28" width="13" height="13" rx="1" fill="#f0f0f0" opacity="1"/>
    <rect x="28" y="28" width="13" height="13" rx="1" fill="#1a5276" opacity="0.9"/>
    <rect x="42" y="28" width="13" height="13" rx="1" fill="#f0f0f0" opacity="1"/>
    <rect x="56" y="28" width="13" height="13" rx="1" fill="#e74c3c" opacity="0.55"/>
    <rect x="70" y="28" width="13" height="13" rx="1" fill="#f0f0f0" opacity="1"/>
    <rect x="84" y="28" width="13" height="13" rx="1" fill="#1a5276" opacity="0.72"/>
    <rect x="98" y="28" width="13" height="13" rx="1" fill="#f0f0f0" opacity="1"/>

    <rect x="0" y="42" width="13" height="13" rx="1" fill="#f0f0f0" opacity="1"/>
    <rect x="42" y="42" width="13" height="13" rx="1" fill="#1a5276" opacity="0.85"/>
    <rect x="14" y="42" width="13" height="13" rx="1" fill="#e74c3c" opacity="0.6"/>
    <rect x="28" y="42" width="13" height="13" rx="1" fill="#f0f0f0" opacity="1"/>
    <rect x="56" y="42" width="13" height="13" rx="1" fill="#f0f0f0" opacity="1"/>
    <rect x="70" y="42" width="13" height="13" rx="1" fill="#2980b9" opacity="0.45"/>
    <rect x="84" y="42" width="13" height="13" rx="1" fill="#f0f0f0" opacity="1"/>
    <rect x="98" y="42" width="13" height="13" rx="1" fill="#1a5276" opacity="0.5"/>

    <rect x="0" y="56" width="13" height="13" rx="1" fill="#1a5276" opacity="0.7"/>
    <rect x="14" y="56" width="13" height="13" rx="1" fill="#f0f0f0" opacity="1"/>
    <rect x="28" y="56" width="13" height="13" rx="1" fill="#e74c3c" opacity="0.55"/>
    <rect x="42" y="56" width="13" height="13" rx="1" fill="#f0f0f0" opacity="1"/>
    <rect x="56" y="56" width="13" height="13" rx="1" fill="#1a5276" opacity="0.92"/>
    <rect x="70" y="56" width="13" height="13" rx="1" fill="#f0f0f0" opacity="1"/>
    <rect x="84" y="56" width="13" height="13" rx="1" fill="#e74c3c" opacity="0.68"/>
    <rect x="98" y="56" width="13" height="13" rx="1" fill="#f0f0f0" opacity="1"/>

    <rect x="0" y="70" width="13" height="13" rx="1" fill="#f0f0f0" opacity="1"/>
    <rect x="14" y="70" width="13" height="13" rx="1" fill="#1a5276" opacity="0.65"/>
    <rect x="28" y="70" width="13" height="13" rx="1" fill="#f0f0f0" opacity="1"/>
    <rect x="42" y="70" width="13" height="13" rx="1" fill="#2980b9" opacity="0.45"/>
    <rect x="56" y="70" width="13" height="13" rx="1" fill="#f0f0f0" opacity="1"/>
    <rect x="70" y="70" width="13" height="13" rx="1" fill="#1a5276" opacity="0.88"/>
    <rect x="84" y="70" width="13" height="13" rx="1" fill="#e74c3c" opacity="0.4"/>
    <rect x="98" y="70" width="13" height="13" rx="1" fill="#f0f0f0" opacity="1"/>

    <rect x="0" y="84" width="13" height="13" rx="1" fill="#f0f0f0" opacity="1"/>
    <rect x="14" y="84" width="13" height="13" rx="1" fill="#f0f0f0" opacity="1"/>
    <rect x="28" y="84" width="13" height="13" rx="1" fill="#1a5276" opacity="0.72"/>
    <rect x="42" y="84" width="13" height="13" rx="1" fill="#f0f0f0" opacity="1"/>
    <rect x="56" y="84" width="13" height="13" rx="1" fill="#e74c3c" opacity="0.68"/>
    <rect x="70" y="84" width="13" height="13" rx="1" fill="#e74c3c" opacity="0.4"/>
    <rect x="84" y="84" width="13" height="13" rx="1" fill="#1a5276" opacity="0.78"/>
    <rect x="98" y="84" width="13" height="13" rx="1" fill="#f0f0f0" opacity="1"/>

    <rect x="0" y="98" width="13" height="13" rx="1" fill="#e74c3c" opacity="0.85"/>
    <rect x="14" y="98" width="13" height="13" rx="1" fill="#2980b9" opacity="0.3"/>
    <rect x="28" y="98" width="13" height="13" rx="1" fill="#f0f0f0" opacity="1"/>
    <rect x="42" y="98" width="13" height="13" rx="1" fill="#1a5276" opacity="0.5"/>
    <rect x="56" y="98" width="13" height="13" rx="1" fill="#f0f0f0" opacity="1"/>
    <rect x="70" y="98" width="13" height="13" rx="1" fill="#f0f0f0" opacity="1"/>
    <rect x="84" y="98" width="13" height="13" rx="1" fill="#f0f0f0" opacity="1"/>
    <rect x="98" y="98" width="13" height="13" rx="1" fill="#1a5276" opacity="0.82"/>
    <rect x="0" y="0" width="111" height="111" fill="none" stroke="#999" stroke-width="0.5" rx="2"/>
  </g>

  <!-- Legend -->
  <rect x="55" y="184" width="10" height="10" rx="1" fill="#1a5276" opacity="0.8"/>
  <text x="70" y="193" class="axis-label">Strong weight</text>
  <rect x="140" y="184" width="10" height="10" rx="1" fill="#f0f0f0" stroke="#ccc" stroke-width="0.5"/>
  <text x="155" y="193" class="axis-label">Pruned (set to 0)</text>
  <rect x="240" y="184" width="10" height="10" rx="1" fill="#e74c3c" opacity="0.5"/>
  <text x="255" y="193" class="axis-label">Negative weight</text>

  <!-- Explanation text -->
  <text x="180" y="218" text-anchor="middle" class="label" font-style="italic">Zeroing weights below threshold θ removes</text>
  <text x="180" y="232" text-anchor="middle" class="label" font-style="italic">inter-pattern crosstalk noise — a firmware-only</text>
  <text x="180" y="246" text-anchor="middle" class="label" font-style="italic">optimisation requiring zero hardware changes.</text>

  <!-- ═══ RIGHT PANEL: Recall Curve ═══ -->
  <text x="540" y="25" text-anchor="middle" class="title">(b) Recall Accuracy vs. Pruning Threshold</text>

  <!-- Axes -->
  <line x1="400" y1="300" x2="690" y2="300" class="axis-line"/>
  <line x1="400" y1="55" x2="400" y2="300" class="axis-line"/>

  <!-- Y-axis grid and labels -->
  <line x1="400" y1="300" x2="690" y2="300" class="grid-line"/>
  <line x1="400" y1="251" x2="690" y2="251" class="grid-line"/>
  <line x1="400" y1="202" x2="690" y2="202" class="grid-line"/>
  <line x1="400" y1="153" x2="690" y2="153" class="grid-line"/>
  <line x1="400" y1="104" x2="690" y2="104" class="grid-line"/>
  <line x1="400" y1="55" x2="690" y2="55" class="grid-line"/>

  <text x="394" y="304" text-anchor="end" class="axis-label">0.50</text>
  <text x="394" y="255" text-anchor="end" class="axis-label">0.60</text>
  <text x="394" y="206" text-anchor="end" class="axis-label">0.70</text>
  <text x="394" y="157" text-anchor="end" class="axis-label">0.75</text>
  <text x="394" y="108" text-anchor="end" class="axis-label">0.80</text>
  <text x="394" y="59" text-anchor="end" class="axis-label">0.90</text>

  <!-- X-axis labels -->
  <text x="400" y="318" text-anchor="middle" class="axis-label">0</text>
  <text x="458" y="318" text-anchor="middle" class="axis-label">0.05</text>
  <text x="516" y="318" text-anchor="middle" class="axis-label">0.10</text>
  <text x="574" y="318" text-anchor="middle" class="axis-label">0.15</text>
  <text x="632" y="318" text-anchor="middle" class="axis-label">0.20</text>
  <text x="690" y="318" text-anchor="middle" class="axis-label">0.30</text>

  <!-- Axis titles -->
  <text x="545" y="340" text-anchor="middle" class="label">Pruning threshold θ (fraction of max |w|)</text>
  <text x="375" y="178" text-anchor="middle" class="label" transform="rotate(-90, 375, 178)">Recall accuracy</text>

  <!-- Baseline (no pruning) — dashed horizontal line at 0.700 -->
  <line x1="400" y1="202" x2="690" y2="202" stroke="#c0392b" stroke-width="1.5" stroke-dasharray="6,3"/>
  <text x="692" y="196" class="axis-label" fill="#c0392b">Baseline: 0.700</text>

  <!-- Recall curve: rises, peaks at θ≈0.055, then falls -->
  <polyline points="400,202 420,195 440,183 458,163 468,153 478,167 500,187 530,210 560,235 590,260 620,278 660,290 690,295"
            fill="none" stroke="#0d7377" stroke-width="2.5" stroke-linejoin="round"/>

  <!-- Peak marker -->
  <circle cx="458" cy="153" r="5" fill="#0d7377"/>
  <circle cx="458" cy="153" r="3" fill="white"/>

  <!-- Peak annotation -->
  <line x1="458" y1="148" x2="458" y2="100" stroke="#0d7377" stroke-width="1" stroke-dasharray="3,2"/>
  <rect x="420" y="72" width="100" height="28" rx="4" fill="#0d7377" opacity="0.1" stroke="#0d7377" stroke-width="0.5"/>
  <text x="470" y="85" text-anchor="middle" class="annotation">θ* = 0.055</text>
  <text x="470" y="96" text-anchor="middle" class="axis-label" fill="#0d7377">Recall = 0.775</text>

  <!-- Gain annotation -->
  <line x1="408" y1="202" x2="408" y2="153" stroke="#0d7377" stroke-width="1"/>
  <line x1="404" y1="202" x2="412" y2="202" stroke="#0d7377" stroke-width="1"/>
  <line x1="404" y1="153" x2="412" y2="153" stroke="#0d7377" stroke-width="1"/>
  <text x="418" y="182" class="annotation">+10.7%</text>

  <!-- Over-pruning label -->
  <text x="620" y="272" class="axis-label" fill="#c0392b" font-style="italic">Over-pruning</text>
  <text x="620" y="283" class="axis-label" fill="#c0392b" font-style="italic">destroys signal</text>
</svg>