<svg xmlns="http://www.w3.org/2000/svg" viewBox="0 0 612 792" width="8.5in" height="11in">
  <!-- US Letter: 612×792 pt (8.5×11 in). Print at 100% scale. -->
  <!-- 1 mm = 2.8346 pt -->
  <!-- Plate: 25.4 mm = 71.96 pt wide, 76.2 mm = 215.89 pt tall -->
  <!-- PZT disc: 10 mm diameter = 28.35 pt dia, 14.17 pt radius -->
  <style>
    text { font-family: 'Helvetica Neue', Helvetica, Arial, sans-serif; }
    .title { font-size: 13pt; font-weight: 700; fill: #1a1a1a; }
    .subtitle { font-size: 9pt; fill: #444; }
    .label { font-size: 8pt; fill: #1a1a1a; }
    .label-bold { font-size: 8pt; fill: #1a1a1a; font-weight: 700; }
    .dim { font-size: 7pt; fill: #c00; font-weight: 600; }
    .note { font-size: 6.5pt; fill: #555; font-style: italic; }
    .inst { font-size: 7pt; fill: #333; }
    .plate-outline { fill: #f0f5ff; stroke: #2a7fff; stroke-width: 1.0; }
    .plate-clean { fill: none; stroke: #2a7fff; stroke-width: 0.8; }
    .pzt-tx { fill: none; stroke: #e67e00; stroke-width: 1.2; }
    .pzt-rx { fill: none; stroke: #2a7fff; stroke-width: 1.2; }
    .pzt-fill-tx { fill: #e67e00; fill-opacity: 0.12; }
    .pzt-fill-ne { fill: #2a7fff; fill-opacity: 0.12; }
    .pzt-fill-nw { fill: #00aa55; fill-opacity: 0.12; }
    .pzt-nw { fill: none; stroke: #00aa55; stroke-width: 1.2; }
    .crosshair { stroke: #c00; stroke-width: 0.4; }
    .center-dot { fill: #c00; stroke: none; }
    .dim-line { stroke: #c00; stroke-width: 0.5; }
    .dim-ext { stroke: #c00; stroke-width: 0.3; }
    .zone-hatch { fill: none; stroke: #ddd; stroke-width: 0.3; }
    .zone-label { font-size: 7pt; fill: #999; font-style: italic; }
    .ruler-bg { fill: #fafaf5; stroke: #333; stroke-width: 0.8; }
    .tick { stroke: #333; stroke-width: 0.5; }
    .tick-major { stroke: #333; stroke-width: 0.8; }
    .orient-arrow { fill: none; stroke: #888; stroke-width: 0.6; marker-end: url(#arrowhead); }
  </style>

  <defs>
    <marker id="arrowhead" markerWidth="6" markerHeight="4" refX="5" refY="2" orient="auto">
      <polygon points="0 0, 6 2, 0 4" fill="#c00"/>
    </marker>
    <marker id="arrowhead-dim" markerWidth="5" markerHeight="3" refX="4.5" refY="1.5" orient="auto">
      <polygon points="0 0, 5 1.5, 0 3" fill="#c00"/>
    </marker>
    <!-- PZT guide: reusable group for a single PZT position mark -->
    <!-- Parameters passed via transform. PZT is 10mm dia = r14.17pt -->
  </defs>

  <!-- ================================================================ -->
  <!-- PAGE HEADER                                                       -->
  <!-- ================================================================ -->
  <text x="306" y="28" text-anchor="middle" class="title">CWM Plate Template — 25.4 × 76.2 mm Slide (1:1 Scale)</text>
  <text x="306" y="42" text-anchor="middle" class="subtitle">Print at 100% (no scaling). PZTs bond to underside. Top surface clear for perturbations.</text>
  <text x="306" y="54" text-anchor="middle" class="note">Verify: the calibration ruler below should measure exactly 50 mm with a physical ruler.</text>

  <!-- ================================================================ -->
  <!-- CALIBRATION RULER (50 mm = 141.73 pt)                             -->
  <!-- ================================================================ -->
  <g transform="translate(235, 62)">
    <rect x="0" y="0" width="141.73" height="10" class="ruler-bg"/>
    <line x1="0" y1="0" x2="0" y2="10" class="tick-major"/>
    <line x1="28.35" y1="0" x2="28.35" y2="7" class="tick"/>
    <line x1="56.69" y1="0" x2="56.69" y2="7" class="tick"/>
    <line x1="85.04" y1="0" x2="85.04" y2="7" class="tick"/>
    <line x1="113.39" y1="0" x2="113.39" y2="7" class="tick"/>
    <line x1="141.73" y1="0" x2="141.73" y2="10" class="tick-major"/>
    <line x1="14.17" y1="0" x2="14.17" y2="4" class="tick"/>
    <line x1="42.52" y1="0" x2="42.52" y2="4" class="tick"/>
    <line x1="70.87" y1="0" x2="70.87" y2="4" class="tick"/>
    <line x1="99.21" y1="0" x2="99.21" y2="4" class="tick"/>
    <line x1="127.56" y1="0" x2="127.56" y2="4" class="tick"/>
    <text x="0" y="22" class="label" text-anchor="middle">0</text>
    <text x="28.35" y="22" class="label" text-anchor="middle">10</text>
    <text x="56.69" y="22" class="label" text-anchor="middle">20</text>
    <text x="85.04" y="22" class="label" text-anchor="middle">30</text>
    <text x="113.39" y="22" class="label" text-anchor="middle">40</text>
    <text x="141.73" y="22" class="label" text-anchor="middle">50 mm</text>
  </g>

  <!-- ================================================================ -->
  <!-- SECTION 1: ANNOTATED REFERENCE PLATE (left)                       -->
  <!-- Plate origin at (60, 108). Shows dimensions + PZT positions.      -->
  <!-- Underside view (PZT bonding face).                                -->
  <!--                                                                   -->
  <!-- PZT positions (mm from plate top-left, underside view):           -->
  <!--   TX:    (12.7, 5.0)  — centered, 5 mm from TX end               -->
  <!--   RX_NE: (19.05, 71.2) — ¾ width, 5 mm from RX end              -->
  <!--   RX_NW: (6.35, 71.2)  — ¼ width, 5 mm from RX end              -->
  <!--                                                                   -->
  <!-- In pt:                                                            -->
  <!--   TX:    (36.0, 14.2)                                             -->
  <!--   RX_NE: (54.0, 201.8)                                           -->
  <!--   RX_NW: (18.0, 201.8)                                           -->
  <!-- ================================================================ -->

  <text x="60" y="100" class="label-bold">ANNOTATED REFERENCE — Underside view (PZT bonding face)</text>

  <g transform="translate(60, 108)">
    <!-- Plate outline -->
    <rect x="0" y="0" width="71.96" height="215.89" class="plate-outline"/>

    <!-- ── Dimension: width (25.4 mm) ── -->
    <line x1="0" y1="-8" x2="71.96" y2="-8" class="dim-line" marker-end="url(#arrowhead-dim)"/>
    <line x1="71.96" y1="-8" x2="0" y2="-8" class="dim-line" marker-end="url(#arrowhead-dim)"/>
    <line x1="0" y1="-14" x2="0" y2="-2" class="dim-ext"/>
    <line x1="71.96" y1="-14" x2="71.96" y2="-2" class="dim-ext"/>
    <text x="35.98" y="-11" text-anchor="middle" class="dim">25.4 mm (1″)</text>

    <!-- ── Dimension: height (76.2 mm) ── -->
    <line x1="-8" y1="0" x2="-8" y2="215.89" class="dim-line"/>
    <line x1="-14" y1="0" x2="-2" y2="0" class="dim-ext"/>
    <line x1="-14" y1="215.89" x2="-2" y2="215.89" class="dim-ext"/>
    <text x="-18" y="107.95" text-anchor="middle" class="dim" transform="rotate(-90, -18, 107.95)">76.2 mm (3″)</text>

    <!-- ── TX PZT (orange) at (36.0, 14.2) ── -->
    <circle cx="36.0" cy="14.2" r="14.17" class="pzt-fill-tx"/>
    <circle cx="36.0" cy="14.2" r="14.17" class="pzt-tx"/>
    <line x1="29.0" y1="14.2" x2="33.0" y2="14.2" class="crosshair"/>
    <line x1="39.0" y1="14.2" x2="43.0" y2="14.2" class="crosshair"/>
    <line x1="36.0" y1="7.2" x2="36.0" y2="11.2" class="crosshair"/>
    <line x1="36.0" y1="17.2" x2="36.0" y2="21.2" class="crosshair"/>
    <circle cx="36.0" cy="14.2" r="1.0" class="center-dot"/>
    <text x="85" y="12" class="label-bold" fill="#e67e00">TX</text>
    <text x="85" y="22" class="note">centered, 5 mm from edge</text>

    <!-- ── Dimension: TX offset (5 mm from top) ── -->
    <line x1="75" y1="0" x2="75" y2="14.2" class="dim-line"/>
    <line x1="72" y1="0" x2="78" y2="0" class="dim-ext"/>
    <line x1="72" y1="14.2" x2="78" y2="14.2" class="dim-ext"/>
    <text x="80" y="9" class="dim">5</text>

    <!-- ── Perturbation zone (middle) ── -->
    <rect x="2" y="34" width="67.96" height="147.89" fill="none" stroke="#ccc" stroke-width="0.5" stroke-dasharray="3,2"/>
    <text x="35.98" y="112" text-anchor="middle" class="zone-label">PERTURBATION ZONE</text>
    <text x="35.98" y="122" text-anchor="middle" class="zone-label">(top surface)</text>

    <!-- ── Dimension: perturbation zone length ── -->
    <line x1="-28" y1="28.35" x2="-28" y2="187.54" class="dim-line"/>
    <line x1="-34" y1="28.35" x2="-22" y2="28.35" class="dim-ext"/>
    <line x1="-34" y1="187.54" x2="-22" y2="187.54" class="dim-ext"/>
    <text x="-38" y="107.95" text-anchor="middle" class="dim" transform="rotate(-90, -38, 107.95)">~56 mm usable</text>

    <!-- ── RX_NW PZT (green) at (18.0, 201.8) ── -->
    <circle cx="18.0" cy="201.8" r="14.17" class="pzt-fill-nw"/>
    <circle cx="18.0" cy="201.8" r="14.17" class="pzt-nw"/>
    <line x1="11.0" y1="201.8" x2="15.0" y2="201.8" class="crosshair"/>
    <line x1="21.0" y1="201.8" x2="25.0" y2="201.8" class="crosshair"/>
    <line x1="18.0" y1="194.8" x2="18.0" y2="198.8" class="crosshair"/>
    <line x1="18.0" y1="204.8" x2="18.0" y2="208.8" class="crosshair"/>
    <circle cx="18.0" cy="201.8" r="1.0" class="center-dot"/>

    <!-- ── RX_NE PZT (blue) at (54.0, 201.8) ── -->
    <circle cx="54.0" cy="201.8" r="14.17" class="pzt-fill-ne"/>
    <circle cx="54.0" cy="201.8" r="14.17" class="pzt-rx"/>
    <line x1="47.0" y1="201.8" x2="51.0" y2="201.8" class="crosshair"/>
    <line x1="57.0" y1="201.8" x2="61.0" y2="201.8" class="crosshair"/>
    <line x1="54.0" y1="194.8" x2="54.0" y2="198.8" class="crosshair"/>
    <line x1="54.0" y1="204.8" x2="54.0" y2="208.8" class="crosshair"/>
    <circle cx="54.0" cy="201.8" r="1.0" class="center-dot"/>

    <!-- ── RX labels ── -->
    <text x="85" y="195" class="label-bold" fill="#2a7fff">RX_NE</text>
    <text x="85" y="205" class="label-bold" fill="#00aa55">RX_NW</text>
    <text x="85" y="215" class="note">¼ and ¾ width, 5 mm from edge</text>

    <!-- ── Dimension: RX offset (5 mm from bottom) ── -->
    <line x1="75" y1="201.8" x2="75" y2="215.89" class="dim-line"/>
    <line x1="72" y1="201.8" x2="78" y2="201.8" class="dim-ext"/>
    <line x1="72" y1="215.89" x2="78" y2="215.89" class="dim-ext"/>
    <text x="80" y="211" class="dim">5</text>

    <!-- ── Dimension: RX separation ── -->
    <line x1="18.0" y1="222" x2="54.0" y2="222" class="dim-line"/>
    <line x1="18.0" y1="219" x2="18.0" y2="225" class="dim-ext"/>
    <line x1="54.0" y1="219" x2="54.0" y2="225" class="dim-ext"/>
    <text x="36.0" y="232" text-anchor="middle" class="dim">12.7 mm (½″) c-c</text>

    <!-- ── Dimension: PZT diameter callout ── -->
    <line x1="36.0" y1="0.03" x2="50.17" y2="0.03" class="dim-line"/>
    <text x="53" y="3" class="dim">⌀10 PZT</text>

    <!-- ── Dimension: NW edge clearance ── -->
    <line x1="0" y1="230" x2="18.0" y2="230" class="dim-line"/>
    <line x1="0" y1="227" x2="0" y2="233" class="dim-ext"/>
    <line x1="18.0" y1="227" x2="18.0" y2="233" class="dim-ext"/>
    <text x="9.0" y="240" text-anchor="middle" class="dim">6.35</text>
  </g>

  <!-- ================================================================ -->
  <!-- SECTION 2: WORKING COPIES — 5 clean plates for bonding           -->
  <!-- Row 1: 3 plates starting at (240, 108)                           -->
  <!-- Row 2: 2 plates starting at (240, 365)                           -->
  <!-- ================================================================ -->

  <text x="290" y="100" class="label-bold">WORKING COPIES — lay glass plate on outline, bond PZTs at marks</text>

  <!-- ── Plate 2: Row 1, Col 1 ── -->
  <g transform="translate(240, 108)">
    <rect x="0" y="0" width="71.96" height="215.89" class="plate-clean"/>
    <!-- TX -->
    <circle cx="36.0" cy="14.2" r="14.17" class="pzt-tx" stroke-width="0.8"/>
    <circle cx="36.0" cy="14.2" r="1.0" class="center-dot"/>
    <text x="36.0" y="11" text-anchor="middle" font-size="5pt" fill="#e67e00" font-weight="700">TX</text>
    <!-- RX_NW -->
    <circle cx="18.0" cy="201.8" r="14.17" class="pzt-nw" stroke-width="0.8"/>
    <circle cx="18.0" cy="201.8" r="1.0" class="center-dot"/>
    <text x="18.0" y="199" text-anchor="middle" font-size="5pt" fill="#00aa55" font-weight="700">NW</text>
    <!-- RX_NE -->
    <circle cx="54.0" cy="201.8" r="14.17" class="pzt-rx" stroke-width="0.8"/>
    <circle cx="54.0" cy="201.8" r="1.0" class="center-dot"/>
    <text x="54.0" y="199" text-anchor="middle" font-size="5pt" fill="#2a7fff" font-weight="700">NE</text>
  </g>

  <!-- ── Plate 3: Row 1, Col 2 ── -->
  <g transform="translate(340, 108)">
    <rect x="0" y="0" width="71.96" height="215.89" class="plate-clean"/>
    <circle cx="36.0" cy="14.2" r="14.17" class="pzt-tx" stroke-width="0.8"/>
    <circle cx="36.0" cy="14.2" r="1.0" class="center-dot"/>
    <text x="36.0" y="11" text-anchor="middle" font-size="5pt" fill="#e67e00" font-weight="700">TX</text>
    <circle cx="18.0" cy="201.8" r="14.17" class="pzt-nw" stroke-width="0.8"/>
    <circle cx="18.0" cy="201.8" r="1.0" class="center-dot"/>
    <text x="18.0" y="199" text-anchor="middle" font-size="5pt" fill="#00aa55" font-weight="700">NW</text>
    <circle cx="54.0" cy="201.8" r="14.17" class="pzt-rx" stroke-width="0.8"/>
    <circle cx="54.0" cy="201.8" r="1.0" class="center-dot"/>
    <text x="54.0" y="199" text-anchor="middle" font-size="5pt" fill="#2a7fff" font-weight="700">NE</text>
  </g>

  <!-- ── Plate 4: Row 1, Col 3 ── -->
  <g transform="translate(440, 108)">
    <rect x="0" y="0" width="71.96" height="215.89" class="plate-clean"/>
    <circle cx="36.0" cy="14.2" r="14.17" class="pzt-tx" stroke-width="0.8"/>
    <circle cx="36.0" cy="14.2" r="1.0" class="center-dot"/>
    <text x="36.0" y="11" text-anchor="middle" font-size="5pt" fill="#e67e00" font-weight="700">TX</text>
    <circle cx="18.0" cy="201.8" r="14.17" class="pzt-nw" stroke-width="0.8"/>
    <circle cx="18.0" cy="201.8" r="1.0" class="center-dot"/>
    <text x="18.0" y="199" text-anchor="middle" font-size="5pt" fill="#00aa55" font-weight="700">NW</text>
    <circle cx="54.0" cy="201.8" r="14.17" class="pzt-rx" stroke-width="0.8"/>
    <circle cx="54.0" cy="201.8" r="1.0" class="center-dot"/>
    <text x="54.0" y="199" text-anchor="middle" font-size="5pt" fill="#2a7fff" font-weight="700">NE</text>
  </g>

  <!-- ── Plate 5: Row 2, Col 1 ── -->
  <g transform="translate(240, 365)">
    <rect x="0" y="0" width="71.96" height="215.89" class="plate-clean"/>
    <circle cx="36.0" cy="14.2" r="14.17" class="pzt-tx" stroke-width="0.8"/>
    <circle cx="36.0" cy="14.2" r="1.0" class="center-dot"/>
    <text x="36.0" y="11" text-anchor="middle" font-size="5pt" fill="#e67e00" font-weight="700">TX</text>
    <circle cx="18.0" cy="201.8" r="14.17" class="pzt-nw" stroke-width="0.8"/>
    <circle cx="18.0" cy="201.8" r="1.0" class="center-dot"/>
    <text x="18.0" y="199" text-anchor="middle" font-size="5pt" fill="#00aa55" font-weight="700">NW</text>
    <circle cx="54.0" cy="201.8" r="14.17" class="pzt-rx" stroke-width="0.8"/>
    <circle cx="54.0" cy="201.8" r="1.0" class="center-dot"/>
    <text x="54.0" y="199" text-anchor="middle" font-size="5pt" fill="#2a7fff" font-weight="700">NE</text>
  </g>

  <!-- ── Plate 6: Row 2, Col 2 ── -->
  <g transform="translate(340, 365)">
    <rect x="0" y="0" width="71.96" height="215.89" class="plate-clean"/>
    <circle cx="36.0" cy="14.2" r="14.17" class="pzt-tx" stroke-width="0.8"/>
    <circle cx="36.0" cy="14.2" r="1.0" class="center-dot"/>
    <text x="36.0" y="11" text-anchor="middle" font-size="5pt" fill="#e67e00" font-weight="700">TX</text>
    <circle cx="18.0" cy="201.8" r="14.17" class="pzt-nw" stroke-width="0.8"/>
    <circle cx="18.0" cy="201.8" r="1.0" class="center-dot"/>
    <text x="18.0" y="199" text-anchor="middle" font-size="5pt" fill="#00aa55" font-weight="700">NW</text>
    <circle cx="54.0" cy="201.8" r="14.17" class="pzt-rx" stroke-width="0.8"/>
    <circle cx="54.0" cy="201.8" r="1.0" class="center-dot"/>
    <text x="54.0" y="199" text-anchor="middle" font-size="5pt" fill="#2a7fff" font-weight="700">NE</text>
  </g>

  <!-- ── Plate 7: Row 2, Col 3 ── -->
  <g transform="translate(440, 365)">
    <rect x="0" y="0" width="71.96" height="215.89" class="plate-clean"/>
    <circle cx="36.0" cy="14.2" r="14.17" class="pzt-tx" stroke-width="0.8"/>
    <circle cx="36.0" cy="14.2" r="1.0" class="center-dot"/>
    <text x="36.0" y="11" text-anchor="middle" font-size="5pt" fill="#e67e00" font-weight="700">TX</text>
    <circle cx="18.0" cy="201.8" r="14.17" class="pzt-nw" stroke-width="0.8"/>
    <circle cx="18.0" cy="201.8" r="1.0" class="center-dot"/>
    <text x="18.0" y="199" text-anchor="middle" font-size="5pt" fill="#00aa55" font-weight="700">NW</text>
    <circle cx="54.0" cy="201.8" r="14.17" class="pzt-rx" stroke-width="0.8"/>
    <circle cx="54.0" cy="201.8" r="1.0" class="center-dot"/>
    <text x="54.0" y="199" text-anchor="middle" font-size="5pt" fill="#2a7fff" font-weight="700">NE</text>
  </g>

  <!-- ================================================================ -->
  <!-- LEGEND & INSTRUCTIONS                                             -->
  <!-- ================================================================ -->
  <g transform="translate(42, 610)">
    <text x="0" y="0" class="label-bold">Legend</text>
    <!-- TX -->
    <circle cx="10" cy="15" r="6" fill="none" stroke="#e67e00" stroke-width="1.2"/>
    <text x="22" y="19" class="label">Orange = TX PZT (drive)</text>
    <!-- RX_NE -->
    <circle cx="150" cy="15" r="6" fill="none" stroke="#2a7fff" stroke-width="1.2"/>
    <text x="162" y="19" class="label">Blue = RX_NE (receive, northeast)</text>
    <!-- RX_NW -->
    <circle cx="340" cy="15" r="6" fill="none" stroke="#00aa55" stroke-width="1.2"/>
    <text x="352" y="19" class="label">Green = RX_NW (receive, northwest)</text>
    <!-- Center dot -->
    <circle cx="10" cy="35" r="1.5" fill="#c00" stroke="none"/>
    <text x="22" y="39" class="label">Red dot = PZT center — apply adhesive here</text>

    <line x1="0" y1="50" x2="530" y2="50" stroke="#ddd" stroke-width="0.5"/>

    <text x="0" y="64" class="label-bold">How to use</text>
    <text x="0" y="78" class="inst">1. Print at 100% scale. Verify the 50 mm ruler with a physical ruler.</text>
    <text x="0" y="90" class="inst">2. Place glass slide face-down (underside up) on a working-copy outline, aligning all four edges.</text>
    <text x="0" y="102" class="inst">3. Apply a tiny drop of cyanoacrylate at each red center dot.</text>
    <text x="0" y="114" class="inst">4. Press 10 mm PZT disc onto each marked position. Hold 30 s. Cure 24 h.</text>
    <text x="0" y="126" class="inst">5. The two RX PZTs have 2.7 mm gap and 1.35 mm edge clearance — tight but functional.</text>
    <text x="0" y="138" class="inst">6. Wire: TX to AWG bus, RX_NE and RX_NW each to separate relay channels.</text>

    <line x1="0" y1="148" x2="530" y2="148" stroke="#ddd" stroke-width="0.5"/>

    <text x="0" y="162" class="label-bold">Dimensions (mm)</text>
    <text x="0" y="176" class="inst">Plate: 25.4 × 76.2 × 1 mm soda-lime glass (standard microscope slide)</text>
    <text x="0" y="188" class="inst">PZT: 10 mm dia × 0.5 mm ceramic disc (e.g., uxcell B07RK2V1P2)</text>
    <text x="0" y="200" class="inst">TX center: (12.7, 5.0) mm from near end — centered on width</text>
    <text x="0" y="212" class="inst">RX_NE center: (19.05, 71.2) mm — ¾ width, 5 mm from far end</text>
    <text x="0" y="224" class="inst">RX_NW center: (6.35, 71.2) mm — ¼ width, 5 mm from far end</text>
    <text x="0" y="236" class="inst">RX separation: 12.7 mm center-to-center. Edge clearance: 1.35 mm. PZT gap: 2.7 mm.</text>
    <text x="0" y="248" class="inst">Perturbation zone: ~56 mm × 25.4 mm between TX and RX ends (top surface)</text>
  </g>

  <!-- Template ID -->
  <text x="306" y="782" text-anchor="middle" class="note">Template T.5 — Slide PZT Layout (25.4 × 76.2 mm) · 1 annotated + 6 working copies · Rev 1 · 2026-04-16</text>

</svg>